<?xml version="1.0" encoding="utf-8"?>
<!-- Generator: Adobe Illustrator 16.0.0, SVG Export Plug-In . SVG Version: 6.00 Build 0)  -->
<!DOCTYPE svg PUBLIC "-//W3C//DTD SVG 1.0//EN" "http://www.w3.org/TR/2001/REC-SVG-20010904/DTD/svg10.dtd">
<svg version="1.0" id="Layer_1" xmlns="http://www.w3.org/2000/svg" xmlns:xlink="http://www.w3.org/1999/xlink" x="0px" y="0px"
	 width="100px" height="100px" viewBox="0 0 100 100" enable-background="new 0 0 100 100" xml:space="preserve">
<path d="M73.333,63.333v3.334H80V70c0,7.366-5.97,13.333-13.333,13.333S53.333,77.366,53.333,70V56.667h10V50h-10V36.194
	c5.739-1.487,10-6.657,10-12.861C63.333,15.97,57.36,10,50,10c-7.363,0-13.333,5.97-13.333,13.333c0,6.204,4.261,11.374,10,12.861
	V50h-10v6.667h10V70c0,7.366-5.967,13.333-13.334,13.333C25.97,83.333,20,77.366,20,70v-3.333h6.667v-3.334l-13.334-10V70
	c0,11.048,8.955,20,20,20c6.963,0,13.086-3.558,16.667-8.952C53.581,86.442,59.704,90,66.667,90c11.048,0,20-8.952,20-20V53.333
	L73.333,63.333z M50,30c-3.682,0-6.667-2.985-6.667-6.667s2.985-6.667,6.667-6.667c3.679,0,6.667,2.985,6.667,6.667S53.679,30,50,30
	z"/>
</svg>
