<?xml version="1.0" encoding="utf-8"?>
<!-- Generator: Adobe Illustrator 16.0.0, SVG Export Plug-In . SVG Version: 6.00 Build 0)  -->
<!DOCTYPE svg PUBLIC "-//W3C//DTD SVG 1.0//EN" "http://www.w3.org/TR/2001/REC-SVG-20010904/DTD/svg10.dtd">
<svg version="1.0" id="Layer_1" xmlns="http://www.w3.org/2000/svg" xmlns:xlink="http://www.w3.org/1999/xlink" x="0px" y="0px"
	 width="100px" height="100px" viewBox="0 0 100 100" enable-background="new 0 0 100 100" xml:space="preserve">
<path d="M72.015,41.371l4.652-26.385l-18.054-3.184l-2.669,6.299L10,10v6.769l43.274,7.632l-5.29,12.479
	c1.546,2.204,3.375,4.203,5.401,6.001c-6.071,1.805-10.052,4.81-10.052,8.216V80c0,5.524,10.446,10,23.333,10
	C79.558,90,90,85.524,90,80V51.097C90,46.364,82.321,42.409,72.015,41.371z M62.683,19.289l6.263,1.105l-3.913,22.194
	c-3.551-1.563-6.729-3.849-9.365-6.751L62.683,19.289z M61.12,48.084c2.842,1.39,5.908,2.436,9.18,3.012l0.553-3.136
	c5.856,0.516,9.724,2.014,11.547,3.136c-2.23,1.374-7.465,3.334-15.732,3.334c-8.269,0-13.503-1.96-15.732-3.334
	C52.617,50.062,56.009,48.695,61.12,48.084z M83.333,79.31c-1.321,1.267-6.858,4.023-16.666,4.023
	c-9.805,0-15.346-2.757-16.667-4.023V58.089c4.235,1.855,10.134,3.008,16.667,3.008s12.432-1.152,16.666-3.008V79.31z"/>
</svg>
