<?xml version="1.0" encoding="utf-8"?>
<!-- Generator: Adobe Illustrator 16.0.0, SVG Export Plug-In . SVG Version: 6.00 Build 0)  -->
<!DOCTYPE svg PUBLIC "-//W3C//DTD SVG 1.0//EN" "http://www.w3.org/TR/2001/REC-SVG-20010904/DTD/svg10.dtd">
<svg version="1.0" id="Layer_1" xmlns="http://www.w3.org/2000/svg" xmlns:xlink="http://www.w3.org/1999/xlink" x="0px" y="0px"
	 width="100px" height="100px" viewBox="0 0 100 100" enable-background="new 0 0 100 100" xml:space="preserve">
<path d="M43.333,10c-4.121,4.118-9.811,6.667-16.09,6.667h-3.91V10h-6.666v6.667H10v20h6.667V90h6.666V36.667h3.913
	c6.282,0,11.97,2.549,16.091,6.666C47.942,32.227,47.601,20.299,43.333,10z M39.512,32.663C35.71,30.918,31.55,30,27.246,30H16.667
	v-6.667h10.576c4.3,0,8.467-0.918,12.262-2.662C40.169,24.646,40.173,28.688,39.512,32.663z"/>
<path d="M66.667,16.667V10H60v6.667h-6.667v20H60V90h6.667V36.667l19.778,5.65C88.802,33.942,90,25.306,90,16.667H66.667z
	 M81.599,34.001L67.601,30H60v-6.667h23.079C82.803,26.907,82.312,30.472,81.599,34.001z"/>
</svg>
