<?xml version="1.0" encoding="utf-8"?>
<!-- Generator: Adobe Illustrator 16.0.0, SVG Export Plug-In . SVG Version: 6.00 Build 0)  -->
<!DOCTYPE svg PUBLIC "-//W3C//DTD SVG 1.0//EN" "http://www.w3.org/TR/2001/REC-SVG-20010904/DTD/svg10.dtd">
<svg version="1.0" id="Layer_1" xmlns="http://www.w3.org/2000/svg" xmlns:xlink="http://www.w3.org/1999/xlink" x="0px" y="0px"
	 width="100px" height="100px" viewBox="0 0 100 100" enable-background="new 0 0 100 100" xml:space="preserve">
<path d="M83.333,56.667h-6.666v-26.67c0-3.679-2.988-6.667-6.667-6.667h-6.667C63.333,15.967,57.363,10,50,10
	s-13.333,5.97-13.333,13.333H30c-3.679,0-6.667,2.985-6.667,6.667v15.622l0,0l0,0v11.045h-6.666c-3.679,0-6.667,2.984-6.667,6.666
	v20C10,87.015,12.981,90,16.667,90h66.666C87.012,90,90,87.019,90,83.333v-20C90,59.651,87.019,56.667,83.333,56.667z M50,16.667
	c3.682,0,6.667,2.984,6.667,6.663l-13.334,0.003C43.333,19.651,46.318,16.667,50,16.667z M70,30v12.673
	c-11.517,9.717-28.479,9.723-40,0V30H70z M16.667,83.333v-20h6.666V80c0,1.175,0.241,2.285,0.612,3.333H16.667z M66.667,83.337
	l-33.334-0.004C31.491,83.333,30,81.839,30,80V50.896c5.124,3.213,10.84,5.098,16.667,5.611v6.826h6.666v-6.826
	C59.16,55.993,64.876,54.111,70,50.898v29.104C70,81.843,68.506,83.337,66.667,83.337z M83.333,83.333h-7.278
	c0.371-1.048,0.612-2.154,0.612-3.33v-16.67h6.666V83.333z"/>
</svg>
