<?xml version="1.0" encoding="utf-8"?>
<!-- Generator: Adobe Illustrator 16.0.0, SVG Export Plug-In . SVG Version: 6.00 Build 0)  -->
<!DOCTYPE svg PUBLIC "-//W3C//DTD SVG 1.0//EN" "http://www.w3.org/TR/2001/REC-SVG-20010904/DTD/svg10.dtd">
<svg version="1.0" id="Layer_1" xmlns="http://www.w3.org/2000/svg" xmlns:xlink="http://www.w3.org/1999/xlink" x="0px" y="0px"
	 width="100px" height="100px" viewBox="0 0 100 100" enable-background="new 0 0 100 100" xml:space="preserve">
<path d="M76.667,30h6.666C86.999,30,90,27.002,90,23.333v-6.666C90,13.001,86.999,10,83.333,10H16.667
	C13.001,10,10,13.001,10,16.667v6.666C10,27.002,13.001,30,16.667,30h6.666v20H10v26.667c0,3.685,2.981,6.666,6.667,6.666h6.666
	C23.333,86.999,26.335,90,30,90h40c3.665,0,6.667-3.001,6.667-6.667h6.666c3.686,0,6.667-2.981,6.667-6.666V50H76.667V30z
	 M23.333,76.667h-6.666v-20h6.666V76.667z M30,23.333v-6.666h40v6.666H30z M83.333,23.333h-6.666v-6.666h6.666V23.333z
	 M16.667,23.333v-6.666h6.666v6.666H16.667z M30,30h40v7.565c-12.204,7.649-27.806,7.649-40,0V30z M30,83.333v-6.666h40v6.666H30z
	 M83.333,56.667v20h-6.666v-20H83.333z M70,70H30V45.188c5.156,2.631,10.788,4.238,16.667,4.675v6.804h6.666v-6.801
	c5.876-0.439,11.511-2.047,16.667-4.678V70z"/>
</svg>
