<?xml version="1.0" encoding="utf-8"?>
<!-- Generator: Adobe Illustrator 16.0.0, SVG Export Plug-In . SVG Version: 6.00 Build 0)  -->
<!DOCTYPE svg PUBLIC "-//W3C//DTD SVG 1.0//EN" "http://www.w3.org/TR/2001/REC-SVG-20010904/DTD/svg10.dtd">
<svg version="1.0" id="Layer_1" xmlns="http://www.w3.org/2000/svg" xmlns:xlink="http://www.w3.org/1999/xlink" x="0px" y="0px"
	 width="100px" height="100px" viewBox="0 0 100 100" enable-background="new 0 0 100 100" xml:space="preserve">
<path d="M90,63.334l-6.667-20h-10v-6.667h10V30h-10v-6.666h10v-6.667h-10V10h-6.666v6.667H33.333V10h-6.666v6.667h-10v6.667h10V30
	h-10v6.667h10v6.667h-10l-6.667,20V70h10v20h6.667V70h46.666v20H80V70h10V63.334z M33.333,23.334h33.334V30H33.333V23.334z
	 M33.333,36.667h33.334v6.667H33.333V36.667z M17.028,63.334L21.472,50h57.057l4.443,13.334H17.028z"/>
</svg>
