<?xml version="1.0" encoding="utf-8"?>
<!-- Generator: Adobe Illustrator 16.0.0, SVG Export Plug-In . SVG Version: 6.00 Build 0)  -->
<!DOCTYPE svg PUBLIC "-//W3C//DTD SVG 1.0//EN" "http://www.w3.org/TR/2001/REC-SVG-20010904/DTD/svg10.dtd">
<svg version="1.0" id="Layer_1" xmlns="http://www.w3.org/2000/svg" xmlns:xlink="http://www.w3.org/1999/xlink" x="0px" y="0px"
	 width="100px" height="100px" viewBox="0 0 100 100" enable-background="new 0 0 100 100" xml:space="preserve">
<path d="M49.746,10.002H33.582c-8.425,0-16.39,1.878-23.58,5.166v22.997c7.48,3.404,15.521,5.169,23.586,5.169h16.165
	c15.716,0,29.941-6.38,40.24-16.676C78.883,15.549,64.309,10.002,49.746,10.002z M79.85,26.658
	c-6.811,5.117-14.752,8.349-23.188,9.505V17.169C65.104,18.325,73.045,21.551,79.85,26.658z M16.667,19.637
	c4.323-1.563,8.786-2.487,13.333-2.815v19.689c-4.534-0.328-8.997-1.256-13.333-2.822V19.637z M36.667,36.667V16.668h13.079
	c0.085,0,0.166,0.01,0.251,0.01v19.979c-0.082,0-0.16,0.01-0.244,0.01H36.667z"/>
<path d="M10.001,80.016c4.417-4.421,11.585-4.421,15.999,0c4.417,4.42,11.584,4.42,16.002,0.003
	c4.413-4.424,11.583-4.424,15.998-0.003c4.414,4.42,11.582,4.42,16.002,0.003c4.414-4.424,11.582-4.424,15.996-0.003l-4.717,4.71
	c-1.752-1.752-4.807-1.755-6.559,0.003c-3.404,3.398-7.92,5.27-12.721,5.27c-0.004,0-0.004,0-0.004,0
	c-4.805-0.003-9.322-1.874-12.715-5.272c-1.748-1.752-4.813-1.758-6.561,0.003c-3.402,3.398-7.917,5.27-12.718,5.27
	c-0.004,0-0.004,0-0.004,0c-4.808-0.003-9.322-1.874-12.717-5.272c-0.876-0.876-2.041-1.357-3.281-1.361l0,0
	c-1.243,0-2.409,0.485-3.288,1.364L10.001,80.016z"/>
<path d="M10.001,60.016c4.417-4.42,11.585-4.42,15.999,0c4.417,4.421,11.584,4.421,16.002,0.004
	c4.413-4.424,11.583-4.424,15.998-0.004c4.414,4.421,11.582,4.421,16.002,0.004c4.414-4.424,11.582-4.424,15.996-0.004l-4.717,4.71
	c-1.752-1.751-4.807-1.754-6.559,0.004c-3.404,3.398-7.92,5.27-12.721,5.27c-0.004,0-0.004,0-0.004,0
	c-4.805-0.003-9.322-1.875-12.715-5.273c-1.748-1.751-4.813-1.757-6.561,0.004c-3.402,3.398-7.917,5.27-12.718,5.27
	c-0.004,0-0.004,0-0.004,0c-4.808-0.003-9.322-1.875-12.717-5.273c-0.876-0.875-2.041-1.356-3.281-1.36l0,0
	c-1.243,0-2.409,0.485-3.288,1.364L10.001,60.016z"/>
</svg>
