<?xml version="1.0" encoding="utf-8"?>
<!-- Generator: Adobe Illustrator 16.0.0, SVG Export Plug-In . SVG Version: 6.00 Build 0)  -->
<!DOCTYPE svg PUBLIC "-//W3C//DTD SVG 1.0//EN" "http://www.w3.org/TR/2001/REC-SVG-20010904/DTD/svg10.dtd">
<svg version="1.0" id="Layer_1" xmlns="http://www.w3.org/2000/svg" xmlns:xlink="http://www.w3.org/1999/xlink" x="0px" y="0px"
	 width="100px" height="100px" viewBox="0 0 100 100" enable-background="new 0 0 100 100" xml:space="preserve">
<path d="M66.146,30l-6.67-6.667c-3.682-3.682-5.527-8.506-5.527-13.333c-6.24,6.244-10.094,14.87-10.094,24.388v5.608
	c-5.521,0-9.994-4.479-9.994-10c-7.363,7.36-7.369,19.3-0.006,26.667l5,5.002h22.288l5-5C73.506,49.307,73.513,37.367,66.146,30z
	 M61.429,51.953L58.382,55H41.618l-3.051-3.051c-2.174-2.174-3.353-4.97-3.535-7.818c2.559,1.605,5.583,2.533,8.822,2.533h6.666
	V34.388c0-3.255,0.554-6.426,1.621-9.404c0.781,1.077,1.657,2.103,2.621,3.063l6.67,6.667c2.301,2.305,3.57,5.365,3.567,8.62
	C65,46.588,63.73,49.648,61.429,51.953z"/>
<polygon points="77.718,90 50,79.912 22.278,90 20,83.733 40.254,76.364 20,68.994 22.278,62.729 50,72.816 77.718,62.729 
	80,68.994 59.746,76.364 80,83.733 "/>
</svg>
