<?xml version="1.0" encoding="utf-8"?>
<!-- Generator: Adobe Illustrator 16.0.0, SVG Export Plug-In . SVG Version: 6.00 Build 0)  -->
<!DOCTYPE svg PUBLIC "-//W3C//DTD SVG 1.0//EN" "http://www.w3.org/TR/2001/REC-SVG-20010904/DTD/svg10.dtd">
<svg version="1.0" id="Layer_1" xmlns="http://www.w3.org/2000/svg" xmlns:xlink="http://www.w3.org/1999/xlink" x="0px" y="0px"
	 width="100px" height="100px" viewBox="0 0 100 100" enable-background="new 0 0 100 100" xml:space="preserve">
<path d="M49.749,20.001H33.584c-8.424,0-16.393,1.882-23.582,5.166v22.997c7.479,3.405,15.523,5.169,23.589,5.169h16.165
	c15.715,0,29.943-6.38,40.242-16.676C78.889,25.548,64.313,20.001,49.749,20.001z M33.591,46.667
	c-5.768,0-11.444-0.999-16.923-2.976V29.637c5.452-1.973,11.122-2.969,16.916-2.969h16.165c11.006,0,21.471,3.509,30.106,9.989
	c-8.646,6.494-19.107,10.01-30.1,10.01H33.591z"/>
<path d="M41.67,41.664c2.761,0,5-2.239,5-5s-2.239-5-5-5l-13.333,0.004c-2.76,0-4.999,2.239-4.999,4.999c0,2.761,2.239,5,4.999,5
	L41.67,41.664z"/>
<path d="M73.329,60c-1.833,0-4.395,1.061-5.69,2.356l-4.31,4.31H36.67l-4.31-4.31C31.065,61.061,28.503,60,26.671,60H10.005v19.999
	h16.666c1.832,0,4.395-1.062,5.689-2.356l4.31-4.311h26.659l4.31,4.311c1.296,1.295,3.857,2.356,5.69,2.356h16.666V60H73.329z
	 M27.243,73.326H16.671v-6.667h10.572l3.334,3.334L27.243,73.326z M83.335,73.332H72.763l-3.333-3.333l3.333-3.333h10.572V73.332z"
	/>
</svg>
