<?xml version="1.0" encoding="utf-8"?>
<!-- Generator: Adobe Illustrator 16.0.0, SVG Export Plug-In . SVG Version: 6.00 Build 0)  -->
<!DOCTYPE svg PUBLIC "-//W3C//DTD SVG 1.0//EN" "http://www.w3.org/TR/2001/REC-SVG-20010904/DTD/svg10.dtd">
<svg version="1.0" id="Layer_1" xmlns="http://www.w3.org/2000/svg" xmlns:xlink="http://www.w3.org/1999/xlink" x="0px" y="0px"
	 width="100px" height="100px" viewBox="0 0 100 100" enable-background="new 0 0 100 100" xml:space="preserve">
<path d="M50,10c-22.09,0-40,17.91-40,40s17.91,40,40,40c22.093,0,40-17.91,40-40S72.093,10,50,10z M50,83.334
	c-18.411,0-33.333-14.926-33.333-33.334c0-18.411,14.922-33.333,33.333-33.333S83.333,31.589,83.333,50
	C83.333,68.408,68.411,83.334,50,83.334z"/>
<path d="M40.573,40.573l-9.428,28.284l28.281-9.43l9.431-28.281L40.573,40.573z M54.157,54.157L45.84,45.84l12.474-4.153
	L54.157,54.157z"/>
<circle cx="50" cy="26.667" r="3.333"/>
<circle cx="50" cy="73.334" r="3.333"/>
<circle cx="26.667" cy="50" r="3.333"/>
<circle cx="73.333" cy="50" r="3.333"/>
</svg>
