<?xml version="1.0" encoding="utf-8"?>
<!-- Generator: Adobe Illustrator 16.0.0, SVG Export Plug-In . SVG Version: 6.00 Build 0)  -->
<!DOCTYPE svg PUBLIC "-//W3C//DTD SVG 1.0//EN" "http://www.w3.org/TR/2001/REC-SVG-20010904/DTD/svg10.dtd">
<svg version="1.0" id="Layer_1" xmlns="http://www.w3.org/2000/svg" xmlns:xlink="http://www.w3.org/1999/xlink" x="0px" y="0px"
	 width="100px" height="100px" viewBox="0 0 100 100" enable-background="new 0 0 100 100" xml:space="preserve">
<path d="M89.998,14.713l-4.714-4.715l-8.492,8.494C62.391,6.477,40.952,7.213,27.433,20.729c2.37,2.369,4.958,4.367,7.631,6.182
	c-6.914,0.998-13.613,4.688-18.923,11.096c1.956,2.367,4.121,4.322,6.399,5.951c-5.654,3.609-10.179,9.331-12.529,16.947
	c3.223,1.701,6.488,2.818,9.714,3.398c-6.777,5.829-10.566,14.908-9.563,25.543c10.625,0.993,19.7-2.8,25.533-9.577
	c0.58,3.227,1.693,6.491,3.398,9.711c7.611-2.351,13.33-6.869,16.94-12.523c1.631,2.279,3.584,4.443,5.95,6.403
	c6.374-5.28,10.053-11.937,11.078-18.814c1.829,2.698,3.906,5.214,6.204,7.516c13.516-13.516,14.248-34.957,2.239-49.355
	L89.998,14.713z M18.794,57.273c2.584-4.513,6.344-7.779,10.787-9.535c0.684,0.248,1.374,0.438,2.064,0.631
	c-1.465,2.943-2.634,6.09-3.373,9.465c-1.084,0.172-2.188,0.283-3.32,0.283C22.901,58.117,20.845,57.834,18.794,57.273z
	 M30.294,76.376c-3.389,3.724-8.069,6.058-13.414,6.748c0.596-4.662,2.435-8.828,5.396-12.08c1.426-1.563,3.119-2.822,4.948-3.874
	c-0.022,1.765,0.039,3.564,0.215,5.397c1.836,0.172,3.633,0.234,5.403,0.211C32.107,74.058,31.287,75.285,30.294,76.376z
	 M25.636,38.008c3.984-3.084,8.568-4.738,13.314-4.738c3.375,0,6.66,0.875,9.717,2.47c-0.727,1.771-1.348,3.567-1.872,5.392
	c-2.513,1.029-5.144,1.621-7.842,1.621c-0.003,0-0.003,0-0.003,0C34.204,42.752,29.62,41.098,25.636,38.008z M33.911,66.093
	c0.247-6.126,1.861-11.8,4.678-16.694c2.217,0.029,4.43-0.248,6.611-0.764c-0.293,2.209-0.488,4.426-0.488,6.65
	c2.259-0.004,4.466-0.191,6.641-0.479c-0.515,2.184-0.788,4.404-0.756,6.625C45.721,64.234,40.04,65.842,33.911,66.093z
	 M52.198,70.712c-1.816,4.385-5.098,7.988-9.473,10.491c-0.879-3.21-1.009-6.409-0.521-9.482c3.359-0.742,6.487-1.911,9.417-3.369
	c0.199,0.71,0.397,1.416,0.654,2.116C52.244,70.546,52.231,70.634,52.198,70.712z M61.98,74.36
	c-3.089-3.987-4.743-8.567-4.743-13.317c0.004-2.691,0.593-5.318,1.618-7.826c1.846-0.531,3.646-1.152,5.403-1.873
	c1.589,3.049,2.461,6.328,2.461,9.699C66.72,65.793,65.066,70.373,61.98,74.36z M79.087,62.037
	c-2.861-4.051-5.059-8.572-6.465-13.357l-2.172-7.377L63.455,44.5c-3.708,1.695-7.549,2.871-11.478,3.521
	c0.65-3.912,1.826-7.742,3.519-11.455l3.193-6.996l-7.376-2.168c-4.782-1.404-9.311-3.609-13.373-6.496
	c4.609-2.768,9.896-4.246,15.41-4.246c8.008,0,15.537,3.119,21.201,8.781C84.458,35.35,85.968,50.523,79.087,62.037z"/>
</svg>
