<?xml version="1.0" encoding="utf-8"?>
<!-- Generator: Adobe Illustrator 16.0.0, SVG Export Plug-In . SVG Version: 6.00 Build 0)  -->
<!DOCTYPE svg PUBLIC "-//W3C//DTD SVG 1.0//EN" "http://www.w3.org/TR/2001/REC-SVG-20010904/DTD/svg10.dtd">
<svg version="1.0" id="Layer_1" xmlns="http://www.w3.org/2000/svg" xmlns:xlink="http://www.w3.org/1999/xlink" x="0px" y="0px"
	 width="100px" height="100px" viewBox="0 0 100 100" enable-background="new 0 0 100 100" xml:space="preserve">
<path d="M51.511,44.642H60L40,10L20,44.642h8.489L10,76.667h26.667V90h6.666V76.667H70L51.511,44.642z M40,23.333l8.454,14.643
	H31.546L40,23.333z M21.546,70l14.639-25.358h7.631L58.454,70H21.546z"/>
<path d="M70,13.333c-3.646,0-7.058,0.993-10,2.698c5.974,3.458,10,9.903,10,17.301c0,7.399-4.026,13.845-10,17.305
	c2.942,1.706,6.354,2.695,10,2.695c11.048,0,20-8.951,20-20C90,22.285,81.048,13.333,70,13.333z M73.304,46.253
	c2.165-3.896,3.363-8.336,3.363-12.92c0-4.583-1.198-9.023-3.363-12.916c5.759,1.471,10.029,6.705,10.029,12.916
	S79.063,44.778,73.304,46.253z"/>
</svg>
