<?xml version="1.0" encoding="utf-8"?>
<!-- Generator: Adobe Illustrator 16.0.0, SVG Export Plug-In . SVG Version: 6.00 Build 0)  -->
<!DOCTYPE svg PUBLIC "-//W3C//DTD SVG 1.0//EN" "http://www.w3.org/TR/2001/REC-SVG-20010904/DTD/svg10.dtd">
<svg version="1.0" id="Layer_1" xmlns="http://www.w3.org/2000/svg" xmlns:xlink="http://www.w3.org/1999/xlink" x="0px" y="0px"
	 width="100px" height="100px" viewBox="0 0 100 100" enable-background="new 0 0 100 100" xml:space="preserve">
<path d="M90,76.667L71.511,44.642H80L60,10l-9.192,15.925C47.933,23.03,44.192,21.019,40,20.306v-6.972h-6.667V20.3
	c-3.033,0.511-5.836,1.695-8.242,3.411l-4.922-4.922l-4.713,4.714l4.922,4.922c-1.716,2.405-2.9,5.208-3.412,8.242H10v6.666h6.966
	c0.512,3.034,1.699,5.834,3.412,8.242l-4.922,4.922l4.713,4.717l4.922-4.925C28.359,58.616,32.347,60,36.667,60
	c1.061,0,2.093-0.107,3.108-0.267L30,76.667h26.667V90h6.666V76.667H90z M60,23.333l8.454,14.643H51.546L60,23.333z M36.667,53.333
	c-7.363,0-13.334-5.97-13.334-13.333s5.971-13.333,13.334-13.333c4.355,0,8.189,2.122,10.621,5.352L40,44.642h8.489l-3.099,5.368
	C43.047,52.051,40.02,53.333,36.667,53.333z M56.188,44.642h7.623L78.454,70H41.546L56.188,44.642z"/>
</svg>
