<?xml version="1.0" encoding="utf-8"?>
<!-- Generator: Adobe Illustrator 16.0.0, SVG Export Plug-In . SVG Version: 6.00 Build 0)  -->
<!DOCTYPE svg PUBLIC "-//W3C//DTD SVG 1.0//EN" "http://www.w3.org/TR/2001/REC-SVG-20010904/DTD/svg10.dtd">
<svg version="1.0" id="Layer_1" xmlns="http://www.w3.org/2000/svg" xmlns:xlink="http://www.w3.org/1999/xlink" x="0px" y="0px"
	 width="100px" height="100px" viewBox="0 0 100 100" enable-background="new 0 0 100 100" xml:space="preserve">
<path d="M85.286,10.001L43.405,51.882c-5.111-3.008-11.777-2.366-16.166,2.021c-4.388,4.388-5.032,11.058-2.024,16.167L10,85.285
	l4.714,4.714l15.215-15.215c5.11,3.008,11.78,2.363,16.168-2.024c4.389-4.389,5.029-11.054,2.021-16.164l35.215-35.215v51.951
	c0,1.843-1.494,3.334-3.333,3.334s-3.333-1.491-3.333-3.334v-6.666H70v6.666c0,5.521,4.479,10,10,10s10-4.479,10-10V10.001H85.286z
	 M41.38,68.046c-2.604,2.604-6.822,2.604-9.427,0s-2.604-6.821,0-9.426c2.604-2.607,6.823-2.604,9.427,0
	C43.984,61.225,43.984,65.441,41.38,68.046z"/>
<path d="M56.667,12.001h-7.676c-1.101,0-2.637,0.637-3.412,1.414l-3.76,3.757l-1.995-1.995c-3.45-3.449-7.972-5.176-12.5-5.176
	s-9.05,1.727-12.5,5.176L10,20l4.824,4.824c3.45,3.447,7.972,5.176,12.5,5.176s9.05-1.729,12.5-5.176l1.995-1.995l3.767,3.757
	C46.36,27.363,47.897,28,48.997,28h7.67l-3.334-8L56.667,12.001z M35.11,20.111c-2.08,2.076-4.844,3.223-7.786,3.223
	s-5.706-1.146-7.786-3.225L19.427,20l0.111-0.11c2.076-2.078,4.844-3.223,7.786-3.223s5.71,1.145,7.786,3.223L35.222,20
	L35.11,20.111z"/>
</svg>
