<?xml version="1.0" encoding="utf-8"?>
<!-- Generator: Adobe Illustrator 16.0.0, SVG Export Plug-In . SVG Version: 6.00 Build 0)  -->
<!DOCTYPE svg PUBLIC "-//W3C//DTD SVG 1.0//EN" "http://www.w3.org/TR/2001/REC-SVG-20010904/DTD/svg10.dtd">
<svg version="1.0" id="Layer_1" xmlns="http://www.w3.org/2000/svg" xmlns:xlink="http://www.w3.org/1999/xlink" x="0px" y="0px"
	 width="100px" height="100px" viewBox="0 0 100 100" enable-background="new 0 0 100 100" xml:space="preserve">
<path d="M36.67,80.657c8.887,3.686,18.431,3.412,26.663,0.004c8.887-3.682,18.432-3.412,26.667,0l-2.552,6.158
	c-6.953-2.877-14.609-2.881-21.563,0.004C60.762,88.938,55.384,90,50.003,90s-10.762-1.062-15.882-3.184
	c-6.953-2.878-14.609-2.881-21.569,0.003L10,80.661C18.887,76.979,28.431,77.249,36.67,80.657z"/>
<path d="M36.67,67.312c8.887,3.685,18.431,3.411,26.663,0.003c8.887-3.682,18.432-3.411,26.667,0l-2.552,6.159
	c-6.953-2.878-14.609-2.881-21.563,0.003c-5.124,2.116-10.502,3.177-15.883,3.177s-10.762-1.061-15.882-3.184L36.67,67.312z"/>
<path d="M90,20l-4.714-4.713c0,0-13.6,13.564-13.727,13.688c-7.852-5.889-17.123-8.991-26.475-9.352h0.006L50,14.713L45.286,10
	L34.954,20.332h0.004C25.82,21.966,17.07,26.273,10.007,33.34c8.951,8.952,20.611,13.489,32.344,13.718h-0.007l9.609,9.609
	l4.714-4.714l-5.541-5.54H51.12c7.252-1.221,14.283-4.102,20.439-8.725c0.13,0.124,13.727,13.691,13.727,13.691L90,46.667
	L76.667,33.333L90,20z M43.333,40.476c-0.003,0-0.006,0-0.006,0c-8.311-0.004-16.225-2.514-22.917-7.136
	c6.696-4.629,14.616-7.142,22.93-7.142h0.007c8.311,0,16.224,2.513,22.916,7.135C59.567,37.962,51.647,40.476,43.333,40.476z"/>
</svg>
