<?xml version="1.0" encoding="utf-8"?>
<!-- Generator: Adobe Illustrator 16.0.0, SVG Export Plug-In . SVG Version: 6.00 Build 0)  -->
<!DOCTYPE svg PUBLIC "-//W3C//DTD SVG 1.0//EN" "http://www.w3.org/TR/2001/REC-SVG-20010904/DTD/svg10.dtd">
<svg version="1.0" id="Layer_1" xmlns="http://www.w3.org/2000/svg" xmlns:xlink="http://www.w3.org/1999/xlink" x="0px" y="0px"
	 width="100px" height="100px" viewBox="0 0 100 100" enable-background="new 0 0 100 100" xml:space="preserve">
<path d="M90,60H74.987c-1.833,0-4.395,1.061-5.69,2.357l-6.263,6.262l-3.327-3.326c-5.749-5.748-13.288-8.627-20.833-8.627
	c-7.546,0-15.085,2.879-20.834,8.627L10,73.334l8.04,8.039C23.789,87.119,31.328,90,38.874,90c7.545,0,15.084-2.881,20.833-8.627
	l3.327-3.326l6.27,6.264c1.295,1.295,3.857,2.355,5.689,2.355H90l-3.333-13.332L90,60z M54.993,76.66
	c-4.307,4.303-10.032,6.674-16.119,6.674c-6.088,0-11.813-2.371-16.12-6.678l-3.327-3.322l3.327-3.328
	c4.304-4.303,10.029-6.672,16.12-6.672c6.09,0,11.816,2.369,16.119,6.672l3.327,3.328L54.993,76.66z M81.462,80h-6.469
	c-0.179-0.033-0.826-0.299-1.067-0.488l-6.179-6.178l6.264-6.264c0.149-0.104,0.797-0.371,1.1-0.41l6.352,0.004l-1.667,6.67
	L81.462,80z"/>
<path d="M35,73.334c0,1.842-1.491,3.332-3.333,3.332c-1.843,0-3.334-1.49-3.334-3.332c0-1.844,1.491-3.334,3.334-3.334
	C33.509,70,35,71.49,35,73.334z"/>
<path d="M28.333,41.667h5c0,2.761-2.239,5-5,5c-2.76,0-5-2.239-5-5V29.388C27.207,28.011,30,24.349,30,20c0-5.524-4.476-10-10-10
	s-10,4.476-10,10c0,4.349,2.793,8.011,6.667,9.388v12.278c0,6.442,5.225,11.667,11.666,11.667C34.775,53.334,40,48.109,40,41.667V30
	L28.333,41.667z M20,23.333c-1.843,0-3.333-1.494-3.333-3.333c0-1.842,1.49-3.333,3.333-3.333s3.333,1.491,3.333,3.333
	C23.333,21.839,21.843,23.333,20,23.333z"/>
</svg>
