<?xml version="1.0" encoding="utf-8"?>
<!-- Generator: Adobe Illustrator 16.0.0, SVG Export Plug-In . SVG Version: 6.00 Build 0)  -->
<!DOCTYPE svg PUBLIC "-//W3C//DTD SVG 1.0//EN" "http://www.w3.org/TR/2001/REC-SVG-20010904/DTD/svg10.dtd">
<svg version="1.0" id="Layer_1" xmlns="http://www.w3.org/2000/svg" xmlns:xlink="http://www.w3.org/1999/xlink" x="0px" y="0px"
	 width="100px" height="100px" viewBox="0 0 100 100" enable-background="new 0 0 100 100" xml:space="preserve">
<path d="M88.977,44.898c-2.266-5.472-7.754-8.566-13.353-8.127c2.175-4.311,3.187-9.43,2.659-15.053
	c-5.621-0.527-10.738,0.485-15.052,2.658c0.163-2.035-0.085-4.128-0.918-6.143C59.498,11.43,51.698,8.201,44.899,11.02
	c-5.473,2.266-8.568,7.757-8.129,13.359c-4.31-2.174-9.43-3.19-15.052-2.663c-0.527,5.619,0.481,10.737,2.656,15.049
	c-2.034-0.161-4.128,0.084-6.14,0.92C11.432,40.5,8.203,48.298,11.022,55.102c2.262,5.473,7.754,8.568,13.355,8.125
	c-2.174,4.313-3.189,9.435-2.662,15.06c5.621,0.527,10.738-0.485,15.052-2.66c-0.163,2.035,0.085,4.128,0.918,6.143
	C40.5,88.569,48.3,91.802,55.1,88.979c5.473-2.266,8.568-7.754,8.125-13.356c4.313,2.178,9.434,3.19,15.059,2.663
	c0.527-5.622-0.484-10.739-2.659-15.052c2.034,0.162,4.128-0.086,6.143-0.918C88.566,59.496,91.799,51.699,88.977,44.898z
	 M61.786,33.505c2.565-2.568,5.872-4.238,9.622-4.915c-0.674,3.753-2.344,7.057-4.905,9.623c-0.866,0.865-1.843,1.59-2.868,2.248
	c-1.116-1.592-2.503-2.979-4.095-4.096C60.197,35.344,60.92,34.369,61.786,33.505z M47.448,17.182
	c1.646-0.684,3.457-0.684,5.103-0.003c1.641,0.68,2.924,1.963,3.604,3.606c0.339,0.817,0.512,1.677,0.512,2.546
	c0,0.879-0.173,1.738-0.512,2.555l-3.206,7.744c-0.96-0.171-1.934-0.296-2.942-0.296c-1.013,0-1.992,0.125-2.953,0.298l-3.206-7.742
	c-0.342-0.824-0.515-1.68-0.515-2.552C43.333,20.632,44.948,18.217,47.448,17.182z M38.215,33.505
	c0.863,0.864,1.586,1.839,2.243,2.86c-1.592,1.118-2.979,2.504-4.095,4.097c-1.02-0.657-1.996-1.38-2.858-2.243
	c-2.565-2.565-4.238-5.872-4.915-9.63C32.343,29.269,35.651,30.94,38.215,33.505z M23.339,56.668c-2.708,0-5.124-1.615-6.159-4.116
	c-0.684-1.649-0.684-3.458,0-5.103c0.678-1.643,1.96-2.925,3.607-3.605c0.813-0.338,1.673-0.511,2.545-0.511
	c0.879,0,1.738,0.173,2.553,0.511l7.747,3.209c-0.176,0.959-0.3,1.938-0.3,2.949c0,1.008,0.124,1.985,0.297,2.946l-7.738,3.207
	C25.065,56.496,24.211,56.668,23.339,56.668z M38.215,66.495c-2.564,2.565-5.872,4.238-9.629,4.916
	c0.681-3.754,2.351-7.062,4.916-9.622c0.865-0.863,1.842-1.59,2.861-2.244c1.116,1.592,2.503,2.977,4.098,4.092
	C39.804,64.66,39.082,65.633,38.215,66.495z M52.551,82.82c-1.646,0.684-3.457,0.684-5.1,0.003c-1.644-0.68-2.927-1.963-3.606-3.606
	c-0.339-0.817-0.512-1.677-0.512-2.546c0-0.879,0.173-1.738,0.512-2.555l3.209-7.744c0.961,0.172,1.94,0.296,2.953,0.296
	c1.008,0,1.982-0.124,2.942-0.296l3.203,7.74c0.342,0.824,0.515,1.68,0.515,2.553C56.666,79.37,55.051,81.785,52.551,82.82z
	 M50.006,60.002c-5.527,0-10.007-4.473-10.007-10c0-5.523,4.479-10,10.007-10c5.51,0,9.993,4.477,9.993,10
	C59.999,55.529,55.517,60.002,50.006,60.002z M61.789,66.505c-0.865-0.865-1.588-1.845-2.249-2.868
	c1.595-1.115,2.979-2.502,4.095-4.094c1.022,0.656,1.999,1.379,2.861,2.246c2.568,2.564,4.238,5.872,4.916,9.622
	C67.658,70.737,64.354,69.067,61.789,66.505z M82.821,52.549c-0.681,1.645-1.963,2.924-3.606,3.607
	c-0.817,0.34-1.677,0.508-2.546,0.508c-0.879,0-1.738-0.168-2.556-0.508l-7.744-3.209c0.173-0.961,0.297-1.938,0.297-2.946
	c0-1.012-0.124-1.99-0.297-2.949l7.741-3.205c0.823-0.342,1.68-0.515,2.552-0.515c2.705,0,5.121,1.614,6.156,4.112
	C83.502,49.094,83.502,50.904,82.821,52.549z"/>
<circle cx="49.999" cy="50.001" r="3.333"/>
</svg>
