<?xml version="1.0" encoding="utf-8"?>
<!-- Generator: Adobe Illustrator 16.0.0, SVG Export Plug-In . SVG Version: 6.00 Build 0)  -->
<!DOCTYPE svg PUBLIC "-//W3C//DTD SVG 1.0//EN" "http://www.w3.org/TR/2001/REC-SVG-20010904/DTD/svg10.dtd">
<svg version="1.0" id="Layer_1" xmlns="http://www.w3.org/2000/svg" xmlns:xlink="http://www.w3.org/1999/xlink" x="0px" y="0px"
	 width="100px" height="100px" viewBox="0 0 100 100" enable-background="new 0 0 100 100" xml:space="preserve">
<path d="M70,16.667c-5.521,0-10,4.479-10,10c0,5.524,4.479,10,10,10s10-4.476,10-10C80,21.146,75.521,16.667,70,16.667z M70,30
	c-1.839,0-3.333-1.491-3.333-3.333c0-1.839,1.494-3.333,3.333-3.333s3.333,1.494,3.333,3.333C73.333,28.509,71.839,30,70,30z"/>
<path d="M76.667,50c-7.363,0-13.334,5.971-13.334,13.334c0,6.203,4.262,11.373,10,12.861V90H80V76.195
	c5.739-1.488,10-6.658,10-12.861C90,55.971,84.03,50,76.667,50z M76.667,70C72.985,70,70,67.016,70,63.334s2.985-6.668,6.667-6.668
	s6.666,2.986,6.666,6.668S80.349,70,76.667,70z"/>
<path d="M51.667,76.094v-12.76H60l-11.667-40l-11.666,40H45v9.375c-6.436-2.91-13.157-4.971-20-6.191v-9.852h8.333L21.667,10
	L10,56.666h8.333v8.914c-2.77-0.271-5.553-0.41-8.333-0.41V90h60C64.414,84.414,58.229,79.795,51.667,76.094z M21.667,37.487
	L24.795,50h-6.257L21.667,37.487z M16.667,83.334V72.125c12.2,1.023,23.795,4.896,34.082,11.209H16.667z M45.554,56.666l2.779-9.521
	l2.78,9.521H45.554z"/>
</svg>
