<?xml version="1.0" encoding="utf-8"?>
<!-- Generator: Adobe Illustrator 16.0.0, SVG Export Plug-In . SVG Version: 6.00 Build 0)  -->
<!DOCTYPE svg PUBLIC "-//W3C//DTD SVG 1.0//EN" "http://www.w3.org/TR/2001/REC-SVG-20010904/DTD/svg10.dtd">
<svg version="1.0" id="Layer_1" xmlns="http://www.w3.org/2000/svg" xmlns:xlink="http://www.w3.org/1999/xlink" x="0px" y="0px"
	 width="100px" height="100px" viewBox="0 0 100 100" enable-background="new 0 0 100 100" xml:space="preserve">
<path d="M90,89.999L75.186,63.334h8.147l-14.28-26.667h7.617L63.337,10.001l-3.728,7.451L65.882,30H57.92L72.2,56.667h-8.346
	l14.814,26.665h-19.04l-11.11-19.998h8.148L42.383,36.667H50L36.667,10.001L23.333,36.667h7.617L16.667,63.334h8.147L10,89.999H90z
	 M36.667,24.909L39.212,30h-5.091L36.667,24.909z M36.667,40.117l8.867,16.55H27.8L36.667,40.117z M32.441,63.334h8.45l11.11,19.998
	H21.328L32.441,63.334z"/>
</svg>
