<?xml version="1.0" encoding="utf-8"?>
<!-- Generator: Adobe Illustrator 16.0.0, SVG Export Plug-In . SVG Version: 6.00 Build 0)  -->
<!DOCTYPE svg PUBLIC "-//W3C//DTD SVG 1.0//EN" "http://www.w3.org/TR/2001/REC-SVG-20010904/DTD/svg10.dtd">
<svg version="1.0" id="Layer_1" xmlns="http://www.w3.org/2000/svg" xmlns:xlink="http://www.w3.org/1999/xlink" x="0px" y="0px"
	 width="100px" height="100px" viewBox="0 0 100 100" enable-background="new 0 0 100 100" xml:space="preserve">
<path d="M66.667,26.667c-5.521,0-10,4.477-10,10h-7.852l1.543-1.539c3.965-3.964,3.968-10.391,0-14.359l-3.588-3.589
	c-1.985-1.982-2.979-4.58-2.979-7.179c-3.362,3.36-5.433,8.004-5.433,13.131v3.02c-2.976,0-5.384-2.41-5.384-5.384
	c-3.965,3.96-3.965,10.392-0.007,14.36l1.543,1.539H23.333v46.665c0,3.666,3.002,6.667,6.667,6.667h40
	c3.665,0,6.667-3.001,6.667-6.667V36.667C76.667,31.144,72.19,26.667,66.667,26.667z M66.667,33.334
	c1.842,0,3.333,1.491,3.333,3.333h-6.667C63.333,34.825,64.827,33.334,66.667,33.334z M70,43.334v6.667H30v-6.667H70z M30,83.332
	V56.667h40v26.665H30z"/>
<path d="M36.667,70.402l4.713,4.714c4.753-4.753,12.487-4.753,17.24,0l4.713-4.714C55.97,63.041,44.03,63.041,36.667,70.402z"/>
</svg>
