<?xml version="1.0" encoding="utf-8"?>
<!-- Generator: Adobe Illustrator 16.0.0, SVG Export Plug-In . SVG Version: 6.00 Build 0)  -->
<!DOCTYPE svg PUBLIC "-//W3C//DTD SVG 1.0//EN" "http://www.w3.org/TR/2001/REC-SVG-20010904/DTD/svg10.dtd">
<svg version="1.0" id="Layer_1" xmlns="http://www.w3.org/2000/svg" xmlns:xlink="http://www.w3.org/1999/xlink" x="0px" y="0px"
	 width="100px" height="100px" viewBox="0 0 100 100" enable-background="new 0 0 100 100" xml:space="preserve">
<path d="M60,56.667H40c-1.832,0-3.333,1.498-3.333,3.332v13.334c0,1.83,1.501,3.334,3.333,3.334h20c1.832,0,3.333-1.504,3.333-3.334
	V59.999C63.333,58.165,61.832,56.667,60,56.667z M56.667,70H43.333v-6.666h13.334V70z"/>
<path d="M76.667,43.332V14.999H60v-1.667c0-1.833-1.5-3.333-3.333-3.333H43.333c-1.832,0-3.333,1.5-3.333,3.333v1.667H23.333v28.333
	L10,50.001V70c0,3.678,2.985,6.667,6.663,6.667h6.67c0,7.363,5.971,13.334,13.334,13.334h26.666c7.364,0,13.334-5.971,13.334-13.334
	l0,0h6.67C87.015,76.667,90,73.678,90,70V50.001L76.667,43.332z M23.333,70h-6.666V54.121l6.666-3.333V70z M70,76.667
	c0,3.679-2.991,6.666-6.667,6.666H36.667C32.99,83.333,30,80.34,30,76.667V48.146c1.968,1.145,4.226,1.849,6.667,1.849l26.666,0.007
	c2.441,0,4.7-0.707,6.667-1.852V76.667z M70,36.666c0,3.677-2.991,6.666-6.667,6.666v-6.666h-6.666v6.666l-13.334-0.004v-6.662
	h-6.666v6.662c-3.677,0-6.667-2.989-6.667-6.665V21.665h40V36.666z M83.333,70h-6.666V50.788l6.666,3.333V70z"/>
</svg>
