<?xml version="1.0" encoding="utf-8"?>
<!-- Generator: Adobe Illustrator 16.0.0, SVG Export Plug-In . SVG Version: 6.00 Build 0)  -->
<!DOCTYPE svg PUBLIC "-//W3C//DTD SVG 1.0//EN" "http://www.w3.org/TR/2001/REC-SVG-20010904/DTD/svg10.dtd">
<svg version="1.0" id="Layer_1" xmlns="http://www.w3.org/2000/svg" xmlns:xlink="http://www.w3.org/1999/xlink" x="0px" y="0px"
	 width="100px" height="100px" viewBox="0 0 100 100" enable-background="new 0 0 100 100" xml:space="preserve">
<path d="M66.315,21.842c-1.641,0.82-4.323,0.82-5.964,0L39.648,11.491c-1.641-0.82-4.323-0.82-5.964,0L10,23.333V90l23.685-11.843
	c1.641-0.82,4.323-0.82,5.964,0l20.703,10.352c1.641,0.82,4.323,0.82,5.964,0L90,76.667V10L66.315,21.842z M40,19.121l20,10v51.758
	l-20-10V19.121z M16.667,27.454l16.666-8.333v51.758l-16.666,8.333V27.454z M83.333,72.546l-16.666,8.333V29.121l16.666-8.333
	V72.546z"/>
</svg>
