<?xml version="1.0" encoding="utf-8"?>
<!-- Generator: Adobe Illustrator 16.0.0, SVG Export Plug-In . SVG Version: 6.00 Build 0)  -->
<!DOCTYPE svg PUBLIC "-//W3C//DTD SVG 1.0//EN" "http://www.w3.org/TR/2001/REC-SVG-20010904/DTD/svg10.dtd">
<svg version="1.0" id="Layer_1" xmlns="http://www.w3.org/2000/svg" xmlns:xlink="http://www.w3.org/1999/xlink" x="0px" y="0px"
	 width="100px" height="100px" viewBox="0 0 100 100" enable-background="new 0 0 100 100" xml:space="preserve">
<path d="M46.667,50c0-19.108,14.925-34.604,33.333-34.604C74.111,11.984,67.295,10,60,10c-22.09,0-40,17.91-40,40
	c0,22.093,17.91,40,40,40c7.295,0,14.111-1.982,20-5.394C61.592,84.606,46.667,69.114,46.667,50z M26.667,50
	c0-17.077,12.91-31.198,29.482-33.112C46.354,24.417,40,36.458,40,50c0,13.542,6.354,25.583,16.146,33.112
	C39.577,81.194,26.667,67.077,26.667,50z"/>
</svg>
