<?xml version="1.0" encoding="utf-8"?>
<!-- Generator: Adobe Illustrator 16.0.0, SVG Export Plug-In . SVG Version: 6.00 Build 0)  -->
<!DOCTYPE svg PUBLIC "-//W3C//DTD SVG 1.0//EN" "http://www.w3.org/TR/2001/REC-SVG-20010904/DTD/svg10.dtd">
<svg version="1.0" id="Layer_1" xmlns="http://www.w3.org/2000/svg" xmlns:xlink="http://www.w3.org/1999/xlink" x="0px" y="0px"
	 width="100px" height="100px" viewBox="0 0 100 100" enable-background="new 0 0 100 100" xml:space="preserve">
<path d="M36.667,50c0-19.108,14.925-34.606,33.333-34.606C64.111,11.982,57.295,10,50,10c-22.09,0-40,17.91-40,40s17.91,40,40,40
	c7.295,0,14.111-1.985,20-5.397C51.592,84.603,36.667,69.114,36.667,50z M16.667,50c0-17.077,12.91-31.198,29.482-33.112
	C36.354,24.414,30,36.458,30,50c0,13.542,6.354,25.579,16.146,33.112C29.577,81.191,16.667,67.077,16.667,50z"/>
<path d="M66.667,36.667h-3.34c0,9.199-7.461,16.667-16.667,16.667v3.333c9.206,0,16.67,7.461,16.67,16.666h3.34
	c0-9.205,7.461-16.666,16.663-16.666v-3.333C74.131,53.334,66.667,45.873,66.667,36.667z M65,58.92
	c-1.149-1.459-2.464-2.773-3.919-3.92c1.455-1.146,2.77-2.464,3.916-3.919c1.146,1.455,2.464,2.773,3.919,3.919
	C67.461,56.146,66.146,57.461,65,58.92z"/>
<path d="M80,16.667c0,5.521,4.479,10,10,10V30c-5.521,0-10,4.479-10,10h-3.337c0-5.524-4.479-10-10-10v-3.333
	c5.521,0,10-4.479,10-10H80z"/>
</svg>
