<?xml version="1.0" encoding="utf-8"?>
<!-- Generator: Adobe Illustrator 16.0.0, SVG Export Plug-In . SVG Version: 6.00 Build 0)  -->
<!DOCTYPE svg PUBLIC "-//W3C//DTD SVG 1.0//EN" "http://www.w3.org/TR/2001/REC-SVG-20010904/DTD/svg10.dtd">
<svg version="1.0" id="Layer_1" xmlns="http://www.w3.org/2000/svg" xmlns:xlink="http://www.w3.org/1999/xlink" x="0px" y="0px"
	 width="100px" height="100px" viewBox="0 0 100 100" enable-background="new 0 0 100 100" xml:space="preserve">
<path d="M66.667,43.333L60,56.667L43.333,23.333L10,90h80L66.667,43.333z M66.667,58.239l5.123,10.247
	C70.29,69.414,68.562,70,66.667,70l-2.939-5.879L66.667,58.239z M43.333,38.242L59.212,70H46.667
	c-8.061,0-14.785,5.726-16.332,13.333h-9.547L43.333,38.242z M37.278,83.333c1.381-3.877,5.043-6.666,9.389-6.666h15.879
	l3.333,6.666H37.278z M69.837,76.345c1.771-0.355,3.422-1.013,4.938-1.885l4.437,8.873h-5.879L69.837,76.345z"/>
<path d="M76.667,10c-7.363,0-13.334,5.97-13.334,13.333s5.971,13.333,13.334,13.333S90,30.697,90,23.333S84.03,10,76.667,10z
	 M76.667,30C72.985,30,70,27.015,70,23.333s2.985-6.667,6.667-6.667s6.666,2.985,6.666,6.667S80.349,30,76.667,30z"/>
</svg>
