<?xml version="1.0" encoding="utf-8"?>
<!-- Generator: Adobe Illustrator 16.0.0, SVG Export Plug-In . SVG Version: 6.00 Build 0)  -->
<!DOCTYPE svg PUBLIC "-//W3C//DTD SVG 1.0//EN" "http://www.w3.org/TR/2001/REC-SVG-20010904/DTD/svg10.dtd">
<svg version="1.0" id="Layer_1" xmlns="http://www.w3.org/2000/svg" xmlns:xlink="http://www.w3.org/1999/xlink" x="0px" y="0px"
	 width="100px" height="100px" viewBox="0 0 100 100" enable-background="new 0 0 100 100" xml:space="preserve">
<path d="M56.663,66.582c-3.04,4.075-7.854,6.751-13.33,6.751c-9.205,0-16.666-7.461-16.666-16.666
	c0-5.476,2.676-10.292,6.751-13.329c-0.026-0.002-0.056-0.005-0.085-0.005C20.449,43.333,10,53.779,10,66.667
	C10,79.554,20.449,90,33.333,90c12.888,0,23.334-10.446,23.334-23.333C56.667,66.638,56.663,66.608,56.663,66.582z M33.333,83.333
	c-9.189,0-16.666-7.477-16.666-16.666c0-3.744,1.243-7.204,3.333-9.99C20.007,69.534,30.462,79.993,43.323,80
	C40.537,82.093,37.077,83.333,33.333,83.333z"/>
<circle cx="71.667" cy="18.333" r="5"/>
<path d="M56.667,51.666c0,2.761-2.233,5.001-5,5.001c-2.761,0-5-2.24-5-5.001c0-2.761,2.239-5,5-5
	C54.434,46.667,56.667,48.905,56.667,51.666z"/>
<path d="M83.333,75c0,2.761-2.232,5-5,5c-2.76,0-5-2.239-5-5s2.24-5,5-5C81.101,70,83.333,72.239,83.333,75z"/>
<path d="M20,15c0,2.76-2.233,5-5,5c-2.761,0-5-2.24-5-5s2.239-5,5-5C17.767,10,20,12.24,20,15z"/>
<rect x="31.464" y="21.464" transform="matrix(0.7071 -0.7071 0.7071 0.7071 -7.4264 32.0711)" width="7.071" height="7.071"/>
<rect x="81.464" y="34.798" transform="matrix(0.7071 -0.7071 0.7071 0.7071 -2.21 71.3317)" width="7.071" height="7.071"/>
<rect x="70.976" y="57.643" transform="matrix(0.7072 -0.707 0.707 0.7072 -20.9489 69.4144)" width="4.714" height="4.714"/>
<rect x="50.976" y="27.643" transform="matrix(0.7072 -0.7071 0.7071 0.7072 -5.5934 46.495)" width="4.715" height="4.714"/>
<path d="M23.333,36.667C23.333,38.507,21.846,40,20,40c-1.839,0-3.333-1.493-3.333-3.333s1.494-3.333,3.333-3.333
	C21.846,33.333,23.333,34.826,23.333,36.667z"/>
<path d="M66.667,86.667c0,1.842-1.488,3.333-3.334,3.333C61.494,90,60,88.509,60,86.667c0-1.843,1.494-3.334,3.333-3.334
	C65.179,83.333,66.667,84.824,66.667,86.667z"/>
</svg>
