<?xml version="1.0" encoding="utf-8"?>
<!-- Generator: Adobe Illustrator 16.0.0, SVG Export Plug-In . SVG Version: 6.00 Build 0)  -->
<!DOCTYPE svg PUBLIC "-//W3C//DTD SVG 1.0//EN" "http://www.w3.org/TR/2001/REC-SVG-20010904/DTD/svg10.dtd">
<svg version="1.0" id="Layer_1" xmlns="http://www.w3.org/2000/svg" xmlns:xlink="http://www.w3.org/1999/xlink" x="0px" y="0px"
	 width="100px" height="100px" viewBox="0 0 100 100" enable-background="new 0 0 100 100" xml:space="preserve">
<path d="M23.333,70C15.97,70,10,64.031,10,56.668c0-7.366,5.97-13.335,13.333-13.335h20v6.667h-20c-3.682,0-6.666,2.985-6.666,6.669
	c0,3.678,2.984,6.666,6.666,6.666h53.334C84.03,63.334,90,69.305,90,76.668S84.03,90,76.667,90H10v-6.666h66.667
	c3.682,0,6.666-2.988,6.666-6.666c0-3.686-2.984-6.668-6.666-6.668H23.333z"/>
<path d="M88.054,16.659l-4.714-4.713c-2.591-2.595-6.836-2.595-9.427,0L50,35.855l0.003,14.144h14.141l23.91-23.913
	C90.651,23.495,90.645,19.25,88.054,16.659z M61.384,43.333H56.67l-0.003-4.717l21.959-21.957l4.714,4.713L61.384,43.333z"/>
</svg>
