<?xml version="1.0" encoding="utf-8"?>
<!-- Generator: Adobe Illustrator 16.0.0, SVG Export Plug-In . SVG Version: 6.00 Build 0)  -->
<!DOCTYPE svg PUBLIC "-//W3C//DTD SVG 1.0//EN" "http://www.w3.org/TR/2001/REC-SVG-20010904/DTD/svg10.dtd">
<svg version="1.0" id="Layer_1" xmlns="http://www.w3.org/2000/svg" xmlns:xlink="http://www.w3.org/1999/xlink" x="0px" y="0px"
	 width="100px" height="100px" viewBox="0 0 100 100" enable-background="new 0 0 100 100" xml:space="preserve">
<path d="M83.331,46.673c0.004-1.846-1.49-3.333-3.333-3.34H53.331v-6.666h18.623c1.843,0,3.51-0.749,4.714-1.953l5.687-5.687
	c1.306-1.302,1.303-3.412,0.007-4.717l-5.693-5.69c-1.204-1.204-2.871-1.953-4.714-1.953H53.331V10h-6.666v6.667h-26.66
	c-1.846-0.003-3.334,1.491-3.34,3.333l0.003,13.327c-0.003,1.846,1.491,3.333,3.333,3.34h26.664v6.666h-18.62
	c-1.843,0-3.509,0.749-4.714,1.953l-5.687,5.688c-1.306,1.302-1.302,3.411-0.007,4.717l5.693,5.689
	c1.205,1.205,2.871,1.953,4.714,1.953h18.62v20h-6.664c-3.682,0-6.666,2.985-6.666,6.667l33.333-0.003
	c0-3.682-2.985-6.667-6.667-6.667h-6.67V63.333h26.664c1.846,0.004,3.333-1.49,3.34-3.333L83.331,46.673z M23.335,30l-0.004-6.667
	h48.623l3.334,3.333L71.954,30H23.335z M28.045,56.667l-3.333-3.334L28.045,50h48.62l0.003,6.667H28.045z"/>
</svg>
