<?xml version="1.0" encoding="utf-8"?>
<!-- Generator: Adobe Illustrator 16.0.0, SVG Export Plug-In . SVG Version: 6.00 Build 0)  -->
<!DOCTYPE svg PUBLIC "-//W3C//DTD SVG 1.0//EN" "http://www.w3.org/TR/2001/REC-SVG-20010904/DTD/svg10.dtd">
<svg version="1.0" id="Layer_1" xmlns="http://www.w3.org/2000/svg" xmlns:xlink="http://www.w3.org/1999/xlink" x="0px" y="0px"
	 width="100px" height="100px" viewBox="0 0 100 100" enable-background="new 0 0 100 100" xml:space="preserve">
<path d="M23.333,50h43.333V30H90l-6.667-10L90,10H60v33.333H23.333C15.968,43.333,10,49.302,10,56.667C10,64.03,15.968,70,23.333,70
	h53.333c3.682,0,6.666,2.985,6.666,6.667s-2.984,6.666-6.666,6.666H10V90h66.667C84.03,90,90,84.03,90,76.667
	s-5.97-13.334-13.333-13.334H23.333c-3.682,0-6.667-2.984-6.667-6.666S19.652,50,23.333,50z M66.667,16.667h10.875L75.322,20
	l2.22,3.333H66.667V16.667z"/>
</svg>
