<svg xmlns="http://www.w3.org/2000/svg" viewBox="0 0 58.02 46.14"><defs><style>.cls-1{fill:#444;}</style></defs><g id="Layer_2" data-name="Layer 2"><g id="Icons"><path id="_2" data-name="2" class="cls-1" d="M57.82,34.69l-23.89-28a.8.8,0,0,0-.63-.29H25.8l2-3.85A1.77,1.77,0,1,0,24.68,1L23.39,3.41,22.13,1A1.77,1.77,0,0,0,19,2.58l2.38,4.63L.24,43.48a1.75,1.75,0,0,0,0,1.77,1.76,1.76,0,0,0,1.53.89H45a1.81,1.81,0,0,0,1.28-.54l11.47-9.74A.82.82,0,0,0,58,35.3.84.84,0,0,0,57.82,34.69ZM35.76,42.6c-6-4.15-9.93-13-11.31-17.61a1.4,1.4,0,0,0-2.68,0c-1.92,5.91-5.9,13.6-11.33,17.64H4.85L23.37,10.78,41.9,42.6Z"/></g></g></svg>